<?xml version="1.0" encoding="utf-8"?>
<!-- Generator: Adobe Illustrator 21.0.0, SVG Export Plug-In . SVG Version: 6.00 Build 0)  -->
<svg version="1.1" id="Layer_1" xmlns="http://www.w3.org/2000/svg" xmlns:xlink="http://www.w3.org/1999/xlink" x="0px" y="0px"
	 viewBox="0 0 612 792" style="enable-background:new 0 0 612 792;" xml:space="preserve">
<style type="text/css">
	.st0{fill:#2D2D2D;}
	.st1{fill:#2B2B2B;}
	.st2{fill:#2E2E2E;}
	.st3{fill:#252525;}
	.st4{fill:#83AE41;}
	.st5{fill:#A5D131;}
</style>
<g>
	<path class="st0" d="M-77.7,390.9c3-14.3,1.1-26.1,1.8-37.8c0.3-5.1-2.6-11.9,7.4-11.6c10.1,0.3,6.8,7.3,6.9,12.2
		c0.3,17.2,0.3,34.4,0,51.6c-0.1,4,3.1,10.5-4.9,11c-5.5,0.4-10.9,1.2-14.7-5.4c-8.6-14.6-18.1-28.7-30.2-42.4
		c0,12.1,0.2,24.3-0.1,36.4c-0.1,5,2.8,11.5-7.3,11.8c-11.1,0.3-7.8-7-7.9-12.4c-0.2-17.2-0.3-34.4,0.1-51.6
		c0.1-3.6-3.2-9.9,3.2-10.6c6-0.7,13.1-3.1,17.8,4.8C-97.3,361.2-88,374.9-77.7,390.9z"/>
	<path class="st1" d="M-301.9,344.5c13.2,11.8,20.4,25.9,16,44.1c-4.2,17.6-19.1,28.9-36.7,27.9c-17.6-1-29.6-12.3-32.4-30.6
		c-2.9-19.2,6.1-36.1,22.5-41.6c4.1-1.4,8.4-2,12.5-3c5.8-0.5,11.2,5.6,17.3,1.3C-302.6,343.3-302.4,344-301.9,344.5z M-302.1,379.4
		c0-15.9-6.1-23.6-18.5-23.2c-11,0.3-18.3,9.3-18.5,22.8c-0.2,14,7.6,23.4,19.4,23.2C-308,401.9-302.1,394.3-302.1,379.4z"/>
	<path class="st2" d="M-212.9,394.4c3.5,12.5-2.6,19.6-17.5,21.7c-20.8,2.9-39.6-5.4-44.6-22.2c-4.5-15-3-29.7,8.9-41.1
		c12.6-12,27.9-12.9,44.2-9c6.2,1.5,5.7,5.7,5.1,9.8c-1,6.7-6,2.8-9,2.6c-23-1.8-33.1,4.3-34.8,21.4c-1.4,14.6,8.7,25.9,22.4,25.3
		c5.3-0.2,9.2-1.3,8.9-8.1c-0.2-5.3-0.6-9.7-7.6-9c-4.9,0.5-8-0.5-7.9-6.7c0.1-7.2,4.8-5.5,8.8-5.7c1.4-0.1,2.9,0,4.3,0
		C-212.9,373.3-212.9,373.3-212.9,394.4z"/>
	<path class="st1" d="M-136,415.4c-11,2.8-17.9,1.8-20.8-10.6c-2.2-9.8-12.2-3.8-18.6-5.1c-5-1-10-0.1-10.7,6.2
		c-1.6,12.8-9.7,11.7-19.9,9.4c8-22.8,16.2-45.1,23.7-67.7c2.2-6.6,6.5-5.9,11.1-5.8c4.5,0.1,9.6-1.5,11.8,5
		C-151.7,369.7-143.8,392.5-136,415.4z M-161.4,387.2c-3.2-10-6.2-19.3-9.9-30.9c-3.6,11.9-6.4,21.1-9.4,30.9
		C-173.4,387.2-167.8,387.2-161.4,387.2z"/>
	<path class="st3" d="M-28.8,379.9c0,9.6-0.4,19.2,0.1,28.7c0.3,6.5-2.2,8.1-8.3,8c-5.5-0.1-7.5-1.8-7.5-7.4
		c0.2-20.1,0.3-40.2,0-60.3c-0.1-5.8,2.2-7.1,7.6-7.3c6.3-0.2,8.4,1.8,8.1,8.1C-29.1,359.8-28.8,369.9-28.8,379.9z"/>
	<path class="st4" d="M-302.7,342.5c-6.1,4.3-11.4-1.8-17.3-1.3c-2.9-4.2-6.4-8.1-8.7-12.6c-4.7-9.2-3.1-20.5,2.8-26.2
		c4.5-4.4,13.3,3.6,19.2,8.2c1.4,1.1,3,2.1,4.5,3.1C-298.3,323.5-296.2,333.1-302.7,342.5z"/>
	<path class="st5" d="M-302.7,342.5c6.5-9.5,4.3-19.1,0.6-28.7c4.9-6.6,13.6-14.5,18.9-11c8.1,5.3,6.9,17,3.4,26.5
		c-3.7,10.1-12.3,13.8-22.1,15.2C-302.4,344-302.6,343.3-302.7,342.5z"/>
</g>
</svg>
